<svg width="788" height="146" viewBox="0 0 788 146" fill="none" xmlns="http://www.w3.org/2000/svg">
<path d="M34.9277 52.3867L35.5723 52.1719H38.4727C39.332 52.1719 40.5853 51.1693 42.2324 49.1641C42.3757 49.0208 44.2734 48.3405 47.9258 47.123L48.3555 46.6934C49.3581 45.834 50.0742 45.2611 50.5039 44.9746H52.5449C52.6882 44.9746 53.2611 44.6523 54.2637 44.0078C55.2663 43.2917 57.3789 42.5039 60.6016 41.6445C63.8958 40.7852 66.0443 40.069 67.0469 39.4961C67.4766 39.3529 69.0521 39.138 71.7734 38.8516L74.7812 38.3145L77.1445 38.5293C80.9401 38.5293 83.6615 41.0358 85.3086 46.0488C85.3086 46.3353 85.4876 46.8008 85.8457 47.4453C86.2038 48.0182 86.3828 48.4479 86.3828 48.7344C86.3828 51.7422 84.9147 54.8932 81.9785 58.1875L80.4746 62.1621C80.4746 62.3053 80.0807 62.8424 79.293 63.7734C78.5768 64.7044 77.9323 65.8145 77.3594 67.1035C76.7865 68.321 75.2467 70.1829 72.7402 72.6895C72.3105 73.5488 71.7018 74.9095 70.9141 76.7715C70.1263 78.5618 69.446 79.7435 68.873 80.3164C68.3717 80.8893 66.9753 83.0378 64.6836 86.7617C62.4635 90.4857 61.3535 92.6699 61.3535 93.3145C60.2793 94.1022 59.5273 95.4271 59.0977 97.2891C58.7396 99.151 58.0234 100.906 56.9492 102.553L56.7344 103.305C59.026 102.517 60.1719 101.264 60.1719 99.5449C60.1719 99.3301 60.7806 98.793 61.998 97.9336L62.8574 96.4297C63.7168 95.4271 64.4688 94.8542 65.1133 94.7109C65.2565 94.138 66.0085 93.3145 67.3691 92.2402C68.7298 91.0944 69.625 90.3066 70.0547 89.877C70.556 89.4473 71.3438 89.0176 72.418 88.5879C73.4922 88.0866 74.7096 86.2962 76.0703 83.2168C76.2135 82.6439 76.7507 82.1784 77.6816 81.8203C78.6842 81.4622 79.5078 80.8893 80.1523 80.1016C80.7969 79.2422 81.334 78.6693 81.7637 78.3828L82.623 77.0938C83.4108 76.3776 83.9479 75.9479 84.2344 75.8047L89.498 69.3594C92.291 67.569 93.8307 66.1725 94.1172 65.1699L94.9766 64.9551H95.6211C96.7669 64.0241 97.5189 63.3796 97.877 63.0215C97.877 60.873 98.6647 59.4766 100.24 58.832C101.887 58.1159 103.069 57.2923 103.785 56.3613C104.501 55.3587 105.289 54.8574 106.148 54.8574C106.363 54.8574 106.757 55.0723 107.33 55.502H107.545C107.76 55.502 107.975 55.1439 108.189 54.4277V53.3535C108.189 52.1361 108.548 51.1335 109.264 50.3457C109.98 49.5579 110.947 49.0566 112.164 48.8418C113.382 48.5553 114.563 47.6243 115.709 46.0488C116.855 44.4733 118.144 43.6497 119.576 43.5781C121.08 43.5065 122.083 42.9336 122.584 41.8594C123.085 40.7852 124.625 39.6393 127.203 38.4219C129.781 37.1328 131.393 36.4525 132.037 36.3809C132.682 36.2376 133.255 36.0228 133.756 35.7363C134.329 35.4499 134.902 35.3066 135.475 35.3066C136.191 35.3066 137.229 35.5215 138.59 35.9512L140.523 36.3809C142.171 37.097 143.71 38.4219 145.143 40.3555L146.217 41.4297V41.8594L146.432 43.6855V44.5449C147.363 44.9746 147.828 45.4043 147.828 45.834L147.076 47.2305C146.79 47.7318 146.646 48.3405 146.646 49.0566C146.646 49.7012 146.611 50.3815 146.539 51.0977C146.467 51.7422 146.36 52.3867 146.217 53.0312C146.145 53.6042 146.002 54.1771 145.787 54.75C145.644 55.2513 145.465 55.7526 145.25 56.2539C145.035 56.6836 144.785 57.1133 144.498 57.543L143.639 60.9805C143.352 62.3411 142.564 63.9883 141.275 65.9219C140.058 67.7839 139.342 69.1087 139.127 69.8965C138.912 70.6126 138.411 71.6152 137.623 72.9043L137.838 73.5488V75.0527C140.058 74.7663 141.168 73.9069 141.168 72.4746C141.168 70.9707 142.063 69.8607 143.854 69.1445L146.217 67.2109C148.079 63.9167 150.37 61.7682 153.092 60.7656C153.092 59.6198 153.772 58.4382 155.133 57.2207L159.215 53.3535L162.115 51.7422C163.404 49.0924 164.872 47.4811 166.52 46.9082L168.883 45.4043C170.315 44.6882 171.103 44.0078 171.246 43.3633C171.461 42.6471 172.034 41.931 172.965 41.2148C173.896 40.4987 175.257 39.3171 177.047 37.6699L177.906 37.2402L178.98 36.166C179.768 35.7363 180.663 35.3783 181.666 35.0918L182.525 34.6621C184.316 33.3014 185.927 32.4062 187.359 31.9766C188.792 31.4753 190.403 30.6875 192.193 29.6133L195.953 29.0762C196.812 28.7897 197.385 28.6465 197.672 28.6465C204.475 28.6465 207.877 32.4779 207.877 40.1406L207.662 41.8594L207.877 48.0898C206.087 51.026 205.191 52.5658 205.191 52.709L205.406 54.6426C205.406 54.929 204.941 55.7884 204.01 57.2207C203.079 58.5814 202.506 59.4049 202.291 59.6914C202.148 59.9779 201.503 60.7298 200.357 61.9473L199.283 65.1699C198.925 65.8861 198.316 66.5664 197.457 67.2109V68.5C197.457 69.5742 196.061 71.1855 193.268 73.334C192.91 75.196 192.265 76.5924 191.334 77.5234C190.475 78.3828 189.794 79.3138 189.293 80.3164C188.863 81.2474 188.147 82.1426 187.145 83.002C187.145 83.9329 186.536 85.5085 185.318 87.7285C184.101 89.9486 183.134 91.3809 182.418 92.0254C181.773 92.5983 181.093 93.6367 180.377 95.1406L179.41 95.5703C178.98 98.2917 178.479 99.8314 177.906 100.189L176.188 99.9746V100.404C176.188 100.548 176.331 100.798 176.617 101.156C176.904 101.514 177.047 101.908 177.047 102.338C177.047 102.839 176.832 103.269 176.402 103.627C175.973 103.985 175.722 104.343 175.65 104.701C175.579 105.059 175.4 105.417 175.113 105.775C174.898 106.133 174.755 106.85 174.684 107.924C174.612 108.926 174.075 110.323 173.072 112.113C172.07 113.904 171.533 115.121 171.461 115.766C171.389 116.41 171.282 116.947 171.139 117.377C170.995 117.807 170.924 118.236 170.924 118.666C170.924 119.096 170.745 120.206 170.387 121.996C171.747 125.219 172.714 127.403 173.287 128.549C173.86 129.695 174.146 130.447 174.146 130.805C174.146 133.669 173.788 135.603 173.072 136.605C172.356 137.536 170.602 138.002 167.809 138.002C166.018 138.002 164.443 137.393 163.082 136.176C161.793 134.887 160.647 134.242 159.645 134.242V132.309L159.43 132.094H157.711C157.568 131.951 157.245 131.7 156.744 131.342C156.314 130.984 155.885 130.482 155.455 129.838L154.811 129.193C154.238 128.477 153.736 127.296 153.307 125.648L152.662 123.5L152.877 121.781L152.662 119.096C152.662 118.38 152.734 117.807 152.877 117.377L153.092 114.477C153.092 114.19 153.235 113.581 153.521 112.65C153.808 111.648 153.987 110.502 154.059 109.213C154.13 107.852 154.452 106.814 155.025 106.098C155.598 105.382 155.921 104.773 155.992 104.271C156.064 103.77 156.243 103.376 156.529 103.09C156.887 102.732 157.174 101.908 157.389 100.619C157.604 99.3301 158.355 98.2917 159.645 97.5039C160.361 96.2148 160.969 94.9974 161.471 93.8516C162.975 91.7747 163.762 90.7363 163.834 90.7363H165.338C164.622 89.877 164.264 89.3757 164.264 89.2324C164.264 87.2988 165.016 86.332 166.52 86.332C166.806 86.332 167.164 86.4036 167.594 86.5469L168.023 85.6875L167.594 83.8613C167.594 82.6439 168.525 81.4264 170.387 80.209C170.387 78.1322 171.354 76.2702 173.287 74.623L173.072 72.9043C173.502 72.4746 174.111 71.5436 174.898 70.1113C175.686 68.6074 176.689 67.1035 177.906 65.5996L181.236 60.5508L182.74 58.832C182.74 58.9036 182.74 58.9395 182.74 58.9395C182.812 58.8678 182.883 58.7246 182.955 58.5098C183.098 58.2233 183.242 57.8294 183.385 57.3281L184.029 55.7168L184.781 54.8574C186.643 54.3561 187.574 53.7116 187.574 52.9238C187.574 52.7806 187.288 52.3151 186.715 51.5273V51.0977C186.715 50.5247 187.145 49.8086 188.004 48.9492C188.863 48.0898 189.651 46.9082 190.367 45.4043C191.155 43.8288 191.549 42.862 191.549 42.5039C191.549 42.2174 191.406 42.0742 191.119 42.0742C188.827 42.0742 187.288 42.8978 186.5 44.5449C186.5 44.9746 185.104 45.834 182.311 47.123L181.236 48.7344C180.377 49.5221 179.625 49.916 178.98 49.916C178.336 49.916 177.477 50.3457 176.402 51.2051C175.4 51.9928 173.144 53.8548 169.635 56.791C166.126 59.6556 163.548 62.0189 161.9 63.8809L159.43 65.5996C158.427 66.1009 157.926 66.4948 157.926 66.7812C157.926 67.4974 157.317 68.4284 156.1 69.5742L154.811 71.1855C153.808 70.8275 153.235 70.6484 153.092 70.6484C152.304 70.6484 151.624 71.0423 151.051 71.8301C151.624 72.403 151.91 72.7611 151.91 72.9043C151.91 74.0501 150.836 75.2318 148.688 76.4492L144.068 81.2832C143.925 81.4264 143.388 81.8203 142.457 82.4648C141.526 83.1094 140.81 83.9329 140.309 84.9355C139.879 85.8665 138.626 87.5495 136.549 89.9844C134.472 92.3477 133.255 93.6367 132.896 93.8516C132.538 93.9948 132.109 94.4603 131.607 95.248C131.106 96.0358 130.068 97.1458 128.492 98.5781C126.917 100.01 126.021 101.586 125.807 103.305C124.446 103.806 123.766 104.236 123.766 104.594L123.121 105.668L122.262 106.098C122.118 106.384 122.011 106.885 121.939 107.602C121.868 108.246 120.436 109.464 117.643 111.254C114.85 112.973 113.095 113.832 112.379 113.832C112.164 113.832 111.842 113.975 111.412 114.262C110.982 114.548 110.696 114.691 110.553 114.691C110.338 114.691 109.371 114.262 107.652 113.402C106.005 112.543 104.788 110.538 104 107.387L104.859 104.594L104.43 102.338C104.43 101.908 104.752 101.335 105.396 100.619C106.113 99.903 106.471 99.0078 106.471 97.9336C107.617 95.3555 108.476 93.5293 109.049 92.4551L109.264 90.7363C109.55 90.0202 110.016 89.2324 110.66 88.373C111.376 87.4421 111.806 86.4395 111.949 85.3652C112.092 84.2194 112.558 83.5033 113.346 83.2168C114.133 82.9303 117.034 78.5977 122.047 70.2188V68.7148L125.162 63.3438C126.093 61.7682 127.239 59.9779 128.6 57.9727L129.566 55.502C127.346 54.6426 126.165 54.2129 126.021 54.2129C125.592 54.2129 125.055 54.4993 124.41 55.0723C124.41 56.2897 122.298 57.543 118.072 58.832C117.213 59.2617 116.103 60.3001 114.742 61.9473L111.734 63.666C111.305 63.9525 110.624 64.5254 109.693 65.3848L108.189 66.7812C106.399 67.2109 104.859 68.2135 103.57 69.7891L100.67 71.8301C99.8105 72.5462 99.2376 73.0833 98.9512 73.4414C98.6647 73.7995 97.3398 74.5872 94.9766 75.8047L93.2578 77.5234L91.6465 78.3828C90.5007 79.6003 89.6413 80.6387 89.0684 81.498C88.4954 82.3574 87.7435 82.8587 86.8125 83.002L84.4492 83.8613C84.0195 85.7233 82.6947 87.5137 80.4746 89.2324L77.3594 93.0996C76.7865 93.6009 76.2852 93.9948 75.8555 94.2812C75.569 94.9974 75.0677 95.4987 74.3516 95.7852C73.4206 96.931 72.8118 97.7188 72.5254 98.1484L71.2363 99.1152C69.3027 99.8314 68.3359 100.404 68.3359 100.834L68.5508 102.768C68.5508 103.555 67.6914 104.307 65.9727 105.023C65.2565 105.382 64.8268 105.954 64.6836 106.742C64.612 107.53 64.3613 108.354 63.9316 109.213H61.998C61.7832 109.213 61.1029 109.571 59.957 110.287C59.8138 110.287 59.6706 110.359 59.5273 110.502L59.957 112.973C59.957 113.832 59.3841 114.835 58.2383 115.98C57.0924 117.055 56.1973 118.021 55.5527 118.881C54.9798 119.74 54.5501 120.17 54.2637 120.17H53.6191L52.9746 120.6C53.0462 121.96 52.151 123.428 50.2891 125.004L49 126.615C48.5703 126.973 47.3529 128.764 45.3477 131.986C43.3424 135.209 41.4447 137.823 39.6543 139.828C37.8639 141.833 36.2168 143.194 34.7129 143.91C33.209 144.555 31.5977 145.235 29.8789 145.951L25.4746 145.092C25.0449 144.304 24.4004 143.66 23.541 143.158C22.7533 142.657 22.3594 142.12 22.3594 141.547L21.0703 137.787C21.0703 136.785 21.4642 135.567 22.252 134.135C23.0397 132.631 23.5052 131.485 23.6484 130.697C23.8633 129.838 24.293 128.728 24.9375 127.367C25.582 125.935 25.9043 125.147 25.9043 125.004C25.9043 123.07 26.1908 121.889 26.7637 121.459C27.4082 120.958 28.8047 119.883 30.9531 118.236C31.0964 118.236 31.168 118.093 31.168 117.807V117.592L30.9531 115.766C32.6003 112.973 33.6387 111.576 34.0684 111.576C34.2116 111.576 34.498 111.648 34.9277 111.791L34.2832 109.428C34.2832 109.141 34.6771 108.676 35.4648 108.031C36.2526 107.387 36.8613 106.671 37.291 105.883L36.8613 104.594V104.164C36.8613 102.803 37.7565 101.407 39.5469 99.9746C39.8333 99.4017 40.4062 97.9336 41.2656 95.5703L44.0586 90.6289C44.7747 89.2682 45.5267 88.373 46.3145 87.9434C47.1022 87.4421 47.5319 86.8691 47.6035 86.2246C47.6751 85.5801 47.9258 84.8639 48.3555 84.0762C48.3555 84.4342 48.3913 84.4701 48.4629 84.1836C48.6061 83.8255 48.7852 83.1094 49 82.0352C49.2865 80.9609 50.11 80.1016 51.4707 79.457C53.1178 75.2318 54.4069 73.1191 55.3379 73.1191C55.6243 73.1191 56.0182 73.2624 56.5195 73.5488H56.9492C58.0951 73.5488 58.668 73.1191 58.668 72.2598C58.668 71.9733 58.5247 71.8301 58.2383 71.8301C57.5938 72.5462 57.0208 72.9043 56.5195 72.9043C56.0182 72.9043 55.7676 72.7611 55.7676 72.4746C55.7676 72.3314 55.875 72.1882 56.0898 72.0449L58.4531 67.2109L58.668 65.1699C58.9544 64.7402 59.5273 64.0957 60.3867 63.2363L62.2129 60.7656V59.6914C62.2129 59.5482 62.5352 58.832 63.1797 57.543C63.8242 56.1823 64.2897 54.8574 64.5762 53.5684L66.4023 50.8828C66.6888 50.0234 66.832 49.2357 66.832 48.5195C66.832 47.4453 66.6888 46.9082 66.4023 46.9082L60.1719 48.0898C56.806 49.8086 54.4069 51.1693 52.9746 52.1719L50.5039 52.709C50.3607 52.709 49.3939 53.2103 47.6035 54.2129C45.8848 55.1439 44.3451 55.681 42.9844 55.8242C41.6953 55.8958 40.5495 56.3971 39.5469 57.3281L39.1172 57.543H37.0762C36.2884 58.474 35.7513 59.1901 35.4648 59.6914C35.1784 60.1211 34.9277 60.3359 34.7129 60.3359C27.4798 65.1341 22.8965 68.0345 20.9629 69.0371C19.0293 70.0397 17.5612 70.9707 16.5586 71.8301C15.556 72.6178 14.6966 73.1908 13.9805 73.5488V74.8379C13.9805 76.0553 13.0853 77.4518 11.2949 79.0273C9.57617 80.5312 8.07227 81.2832 6.7832 81.2832C6.35352 81.2832 5.67318 81.0684 4.74219 80.6387C3.88281 80.1374 2.88021 79.8151 1.73438 79.6719C0.660156 79.5286 0.123047 78.168 0.123047 75.5898C0.123047 71.9375 3.13086 68.6074 9.14648 65.5996C10.0775 65.1699 10.9368 64.6686 11.7246 64.0957C12.5124 63.5228 15.6992 62.1263 21.2852 59.9062L24.4004 58.4023C25.1165 57.6862 26.2982 57.0417 27.9453 56.4688C29.6641 55.8242 30.9889 55.2871 31.9199 54.8574C32.9225 54.4277 33.7103 54.1413 34.2832 53.998L34.9277 52.3867ZM135.689 78.3828L136.764 76.4492V76.2344C136.764 76.0911 136.62 76.0195 136.334 76.0195C135.618 76.0195 135.045 76.7357 134.615 78.168C134.758 78.5977 134.902 78.8125 135.045 78.8125C135.331 78.8125 135.546 78.6693 135.689 78.3828ZM211.1 98.6855L213.355 96.8594C215.074 96.7161 216.005 95.821 216.148 94.1738C216.292 92.5267 217.473 91.0944 219.693 89.877L220.982 88.0508C222.057 86.9766 224.993 85.5801 229.791 83.8613C231.008 83.1452 231.832 82.5007 232.262 81.9277C232.405 81.7845 232.548 81.7129 232.691 81.7129L234.41 82.1426C235.341 82.1426 236.523 81.8919 237.955 81.3906C239.459 80.8893 240.891 80.6387 242.252 80.6387L246.764 80.4238C247.05 80.4238 247.623 80.6387 248.482 81.0684C249.413 81.498 250.523 81.7129 251.812 81.7129C253.388 81.7129 254.82 82.429 256.109 83.8613C257.47 85.2936 258.15 86.6185 258.15 87.8359C258.15 90.056 257.005 92.3118 254.713 94.6035C252.421 96.8952 250.595 98.1842 249.234 98.4707C248.017 99.6882 247.086 100.476 246.441 100.834C245.797 101.12 245.117 101.622 244.4 102.338C243.756 102.982 243.219 103.305 242.789 103.305C242.503 103.305 242.288 103.233 242.145 103.09C242.001 102.875 241.786 102.768 241.5 102.768C240.354 102.768 239.101 104.164 237.74 106.957L235.807 106.742C234.589 107.53 233.801 108.389 233.443 109.32C233.085 110.251 232.333 110.717 231.188 110.717C228.538 113.367 226.747 114.691 225.816 114.691C225.673 114.691 225.172 114.548 224.312 114.262C223.74 114.978 223.453 115.73 223.453 116.518C223.453 117.377 222.88 117.878 221.734 118.021L220.338 119.311L219.264 119.096L217.115 121.352C216.041 121.352 214.931 121.71 213.785 122.426C213.642 123.285 213.427 124.395 213.141 125.756C212.854 127.045 212.711 127.761 212.711 127.904C212.711 129.981 214.609 131.02 218.404 131.02L223.561 130.268C224.921 130.268 226.174 129.91 227.32 129.193C228.538 128.477 229.827 128.119 231.188 128.119C231.617 128.119 232.262 127.976 233.121 127.689L234.195 128.119C234.697 127.045 235.628 126.078 236.988 125.219C238.349 124.359 239.423 123.93 240.211 123.93L241.285 123.285C241.572 122.426 242.001 121.853 242.574 121.566L243.434 120.814C244.007 120.242 244.544 119.955 245.045 119.955H246.549L246.979 119.74C247.838 117.878 249.02 116.804 250.523 116.518C252.099 116.16 253.066 115.622 253.424 114.906C253.854 114.19 254.57 113.76 255.572 113.617C256.575 113.474 257.398 113.008 258.043 112.221C258.759 111.361 259.618 110.574 260.621 109.857C261.624 109.141 262.304 108.604 262.662 108.246C263.092 107.888 263.45 107.709 263.736 107.709C264.166 107.709 264.381 108.031 264.381 108.676C264.381 109.32 264.524 109.643 264.811 109.643C265.097 109.643 265.24 109.499 265.24 109.213C265.24 108.926 265.169 108.568 265.025 108.139V107.387C265.025 106.312 265.598 105.596 266.744 105.238L271.578 102.123C271.721 100.619 272.115 99.7598 272.76 99.5449C273.476 99.2585 274.013 98.972 274.371 98.6855C274.729 98.3275 275.123 98.1484 275.553 98.1484C276.484 98.1484 276.949 98.6855 276.949 99.7598L276.412 102.553L276.949 105.453C276.949 105.883 276.591 106.492 275.875 107.279C275.23 107.995 274.729 109.141 274.371 110.717C274.013 112.221 273.548 113.044 272.975 113.188H272.33C271.041 114.548 270.003 115.372 269.215 115.658C268.499 115.873 267.926 116.303 267.496 116.947L263.844 121.137C263.128 121.853 262.519 122.497 262.018 123.07C261.516 123.643 261.122 123.93 260.836 123.93L259.977 123.07C259.977 122.927 259.833 122.855 259.547 122.855C258.831 122.855 258.365 123.285 258.15 124.145C258.007 125.004 257.649 125.756 257.076 126.4C254.928 127.403 253.531 128.334 252.887 129.193L252.242 129.408H250.309C249.378 129.408 248.733 130.124 248.375 131.557C248.017 132.917 246.979 133.705 245.26 133.92C243.613 134.135 242.431 134.564 241.715 135.209C241.572 135.352 241.249 135.495 240.748 135.639C240.247 135.782 239.244 136.355 237.74 137.357L228.717 140.58C228.001 140.938 227.535 141.117 227.32 141.117L224.312 141.547C223.883 141.547 223.453 141.26 223.023 140.688C222.594 140.115 222.307 139.828 222.164 139.828L220.23 140.473C218.798 140.902 217.438 141.117 216.148 141.117C215.432 141.117 214.645 140.867 213.785 140.365C212.926 139.864 212.245 139.506 211.744 139.291C209.667 139.291 208.199 137.68 207.34 134.457L206.051 134.672C205.764 134.672 204.798 132.13 203.15 127.045C202.721 126.472 202.04 126.078 201.109 125.863C200.178 125.577 199.713 124.861 199.713 123.715C199.713 120.492 200.393 118.344 201.754 117.27C203.186 116.124 203.974 115.264 204.117 114.691L205.621 109.105C205.908 108.891 206.266 108.174 206.695 106.957L209.166 102.445C209.452 101.944 210.097 100.691 211.1 98.6855ZM233.766 92.2402L232.477 92.8848C232.19 93.028 231.331 93.6725 229.898 94.8184C228.538 95.8926 227.177 96.7878 225.816 97.5039C224.527 98.1484 223.167 99.903 221.734 102.768C220.374 105.632 219.693 107.279 219.693 107.709C219.693 108.139 219.908 108.354 220.338 108.354L223.99 106.742C225.351 106.098 226.604 105.274 227.75 104.271C228.967 103.269 230.686 102.051 232.906 100.619L233.766 99.7598C233.909 99.4733 234.553 98.972 235.699 98.2559C236.917 97.4681 237.812 96.7161 238.385 96L239.459 95.5703C240.676 93.6367 241.894 92.4551 243.111 92.0254C244.4 91.5957 245.045 91.166 245.045 90.7363C245.045 89.877 244.365 89.4473 243.004 89.4473C242.431 89.4473 241.572 89.8053 240.426 90.5215H237.955C237.669 90.5215 236.881 90.9512 235.592 91.8105L233.766 92.2402ZM287.906 90.3066L289.518 89.877L290.162 88.4805C293.671 86.4036 296.178 84.4342 297.682 82.5723C297.825 82.2858 298.147 81.9993 298.648 81.7129C299.15 81.4264 299.687 80.9251 300.26 80.209C302.91 77.5592 306.061 76.2344 309.713 76.2344C314.01 76.2344 316.301 78.8483 316.588 84.0762L317.232 85.6875C317.805 86.6901 318.593 88.7311 319.596 91.8105C320.67 94.89 321.207 96.7878 321.207 97.5039C321.207 99.4375 320.598 101.371 319.381 103.305C318.378 103.806 315.979 106.492 312.184 111.361L311.109 112.113C310.536 113.402 309.785 114.691 308.854 115.98C307.421 116.482 306.705 117.019 306.705 117.592V119.525C306.705 119.669 306.526 119.955 306.168 120.385C305.882 120.814 305.452 121.638 304.879 122.855L304.02 124.145C303.733 124.431 303.447 125.04 303.16 125.971C302.874 126.83 302.444 127.618 301.871 128.334C301.37 129.05 301.119 129.623 301.119 130.053C301.119 131.127 302.516 131.664 305.309 131.664C305.452 131.664 305.989 131.449 306.92 131.02L308.424 131.449C308.567 131.449 308.925 131.234 309.498 130.805C310.071 130.303 310.93 129.91 312.076 129.623C313.294 129.337 314.332 128.907 315.191 128.334C316.122 127.761 317.197 127.26 318.414 126.83C319.703 126.4 320.921 125.72 322.066 124.789C323.212 123.786 324.322 123.07 325.396 122.641C326.542 122.211 327.581 121.566 328.512 120.707C329.514 119.776 330.624 118.917 331.842 118.129C333.059 117.341 334.993 115.622 337.643 112.973C339.361 111.612 340.543 110.86 341.188 110.717C341.331 110.717 341.939 109.786 343.014 107.924C344.16 105.99 345.449 105.023 346.881 105.023C348.385 105.023 349.137 105.74 349.137 107.172C349.137 107.96 348.779 108.712 348.062 109.428V110.072L348.277 111.791C348.421 112.006 348.492 112.328 348.492 112.758C348.492 113.044 348.206 113.474 347.633 114.047C347.132 114.62 346.773 115.372 346.559 116.303C346.344 117.162 345.663 117.735 344.518 118.021C344.088 119.597 343.515 120.492 342.799 120.707C342.154 120.922 341.223 121.638 340.006 122.855C338.788 124.073 337.07 125.505 334.85 127.152C332.63 128.799 331.09 130.089 330.23 131.02C329.443 131.879 328.906 132.309 328.619 132.309C328.476 132.309 328.189 132.165 327.76 131.879C327.33 131.592 327.044 131.449 326.9 131.449C326.471 131.449 326.184 131.951 326.041 132.953L325.611 134.027C324.68 134.6 324.143 134.887 324 134.887L323.355 134.672H322.926C322.066 134.672 321.637 134.994 321.637 135.639L322.281 136.713V136.928C322.281 137.93 321.708 138.432 320.562 138.432C319.775 138.432 317.483 139.757 313.688 142.406L310.572 143.051L307.994 144.447C307.135 143.946 306.598 143.695 306.383 143.695L304.664 144.232L301.549 144.447C301.477 144.447 300.152 143.731 297.574 142.299C295.068 140.867 293.564 139.434 293.062 138.002C292.561 136.57 291.917 135.137 291.129 133.705C290.341 132.201 289.947 131.163 289.947 130.59C289.947 127.152 290.234 124.717 290.807 123.285C291.38 121.781 291.738 120.671 291.881 119.955C292.024 119.239 292.418 118.487 293.062 117.699C293.779 116.84 294.352 115.479 294.781 113.617C296.858 109.464 298.29 106.921 299.078 105.99C299.866 105.059 300.475 103.913 300.904 102.553L302.301 100.619C302.444 100.476 302.659 99.9388 302.945 99.0078C303.232 98.0052 303.59 97.4323 304.02 97.2891C304.592 96.2865 304.879 95.6419 304.879 95.3555C304.879 93.2786 303.948 92.2402 302.086 92.2402C301.728 92.2402 301.334 92.6341 300.904 93.4219C300.475 94.138 299.472 94.8542 297.896 95.5703C296.393 96.2865 295.462 96.8236 295.104 97.1816C294.745 97.5397 293.958 98.0052 292.74 98.5781C291.594 99.0794 290.592 99.903 289.732 101.049L287.906 101.908C287.333 103.269 286.832 104.021 286.402 104.164C285.973 104.307 284.648 104.665 282.428 105.238C282.285 105.31 281.926 105.74 281.354 106.527C280.781 107.315 279.957 107.709 278.883 107.709C278.023 108.568 277.164 109.571 276.305 110.717C276.018 110.717 275.266 111.003 274.049 111.576L271.9 112.113C271.327 112.543 270.683 113.223 269.967 114.154C269.322 115.085 268.069 115.551 266.207 115.551C265.133 115.551 264.596 114.691 264.596 112.973C264.596 109.464 265.813 106.671 268.248 104.594C270.755 102.517 272.581 101.407 273.727 101.264C274.872 101.12 275.589 100.691 275.875 99.9746C276.161 99.2585 276.842 98.6855 277.916 98.2559C279.062 97.7546 280.351 96.7161 281.783 95.1406C283.287 93.4935 284.898 92.3835 286.617 91.8105L287.906 90.3066ZM349.674 103.305L350.533 102.123C352.395 101.693 353.577 100.977 354.078 99.9746C354.293 99.4733 356.083 97.6113 359.449 94.3887C362.815 91.166 364.677 89.4473 365.035 89.2324C367.327 85.0788 368.723 81.9635 369.225 79.8867C370.084 79.457 370.514 78.9557 370.514 78.3828L371.373 76.6641L372.34 76.4492L372.77 76.0195V75.0527C372.77 73.7637 374.166 70.7559 376.959 66.0293C379.752 60.2285 381.256 57.0417 381.471 56.4688C381.686 55.8242 382.115 54.929 382.76 53.7832C383.404 52.5658 384.371 50.2741 385.66 46.9082C387.021 43.5423 389.098 40.0332 391.891 36.3809C392.177 36.2376 392.607 35.4499 393.18 34.0176C393.753 32.5137 394.648 31.0456 395.865 29.6133L397.154 27.3574C397.584 26.6413 398.336 25.388 399.41 23.5977C400.484 21.8073 401.451 20.4108 402.311 19.4082C403.242 18.334 403.922 17.224 404.352 16.0781C404.853 14.9323 405.426 14.1087 406.07 13.6074C406.715 13.1061 407.359 12.2109 408.004 10.9219C408.72 9.5612 409.794 8.88086 411.227 8.88086C414.02 8.88086 416.025 10.0267 417.242 12.3184C418.531 14.61 419.176 16.6152 419.176 18.334C419.176 18.5488 418.746 20.0885 417.887 22.9531L416.275 32.6211C414.843 33.3372 414.127 34.1608 414.127 35.0918C414.127 38.8874 412.659 42.8262 409.723 46.9082C409.436 47.1947 409.186 48.1257 408.971 49.7012C408.827 51.2767 408.219 52.5658 407.145 53.5684C406.07 54.571 405.104 56.2539 404.244 58.6172L394.254 72.9043L393.395 73.7637C392.965 74.0501 392.464 74.6589 391.891 75.5898L390.172 75.0527C388.238 75.0527 387.271 75.6615 387.271 76.8789C387.271 77.3086 387.415 77.8815 387.701 78.5977V78.8125C387.701 78.8841 385.051 82.6439 379.752 90.0918C379.465 90.5215 378.964 91.918 378.248 94.2812L376.744 97.5039C375.24 99.5807 374.166 101.622 373.521 103.627C372.949 105.561 372.161 107.136 371.158 108.354C369.726 111.576 369.01 113.259 369.01 113.402C369.01 113.832 369.225 114.047 369.654 114.047C370.084 114.047 371.087 112.973 372.662 110.824C374.309 108.676 375.634 107.243 376.637 106.527C377.711 105.811 378.606 104.809 379.322 103.52L380.396 102.768C380.683 102.624 381.292 102.195 382.223 101.479L383.297 101.693C383.87 101.264 384.228 100.762 384.371 100.189C384.514 99.6165 384.729 99.1868 385.016 98.9004C386.878 98.6855 388.023 98.0052 388.453 96.8594C388.954 95.7135 389.527 95.1406 390.172 95.1406C390.745 95.1406 391.497 94.4961 392.428 93.207C393.359 91.8464 394.648 90.7721 396.295 89.9844C398.014 89.125 399.267 88.373 400.055 87.7285C400.914 87.084 402.597 86.332 405.104 85.4727C407.61 84.5417 409.293 84.0762 410.152 84.0762H410.797L411.656 84.291L413.268 84.0762C415.774 84.0762 418.281 84.7923 420.787 86.2246C423.294 87.5853 424.368 89.7337 424.01 92.6699L423.15 99.3301L421.969 104.594C421.826 105.453 421.253 107.351 420.25 110.287C419.247 113.223 418.746 114.906 418.746 115.336L418.316 117.377L418.746 120.17L418.531 122.426C418.531 123.142 418.889 123.5 419.605 123.5C419.892 123.5 420.68 122.855 421.969 121.566C422.757 121.71 423.508 121.28 424.225 120.277C424.941 119.275 425.908 118.236 427.125 117.162C427.125 116.876 427.59 116.625 428.521 116.41C429.452 116.124 430.742 115.264 432.389 113.832C432.675 113.188 434.072 111.827 436.578 109.75C439.085 107.602 441.484 105.954 443.775 104.809L444.42 103.949C445.637 102.732 446.747 102.123 447.75 102.123C448.753 102.123 449.254 102.66 449.254 103.734C449.254 104.451 449.075 105.202 448.717 105.99C448.359 106.778 448.108 107.816 447.965 109.105C447.822 110.323 447.105 112.113 445.816 114.477L445.387 115.551C444.885 116.768 444.277 117.484 443.561 117.699C442.844 117.914 442.057 118.523 441.197 119.525C440.41 120.456 438.727 121.352 436.148 122.211C435.003 124.359 434.107 125.434 433.463 125.434L431.529 124.574C430.025 125.792 429.273 127.045 429.273 128.334C427.411 129.91 426.301 130.948 425.943 131.449L423.795 131.234C423.222 131.234 422.936 132.022 422.936 133.598C422.936 133.741 422.184 134.242 420.68 135.102C419.247 135.889 418.137 136.605 417.35 137.25C416.562 137.895 414.879 138.217 412.301 138.217C412.014 138.217 411.585 137.966 411.012 137.465C410.439 136.964 409.579 136.534 408.434 136.176C407.359 135.818 406.607 134.994 406.178 133.705C405.748 132.344 405.283 131.306 404.781 130.59C404.28 129.802 404.029 129.193 404.029 128.764L404.244 126.615L403.707 124.359L404.674 122.855C404.244 121.853 404.029 121.173 404.029 120.814L405.104 114.262C405.891 109.535 406.536 106.456 407.037 105.023C407.18 104.88 407.252 104.451 407.252 103.734L407.037 101.049L407.252 99.5449C407.252 98.4707 406.894 97.8978 406.178 97.8262C405.462 97.7546 405.032 97.5755 404.889 97.2891C403.958 96.8594 403.421 96.6445 403.277 96.6445C402.704 96.6445 402.203 97.11 401.773 98.041C401.344 98.9004 400.771 99.6882 400.055 100.404L397.369 99.9746V100.189C397.369 100.762 396.402 101.872 394.469 103.52C392.678 103.949 391.139 104.88 389.85 106.312C389.277 106.312 388.274 106.885 386.842 108.031C385.481 109.105 384.586 109.714 384.156 109.857L383.297 111.576L381.578 112.113C381.077 113.546 379.895 114.477 378.033 114.906L376.959 116.947C375.455 117.09 374.417 117.878 373.844 119.311C373.271 120.671 372.841 121.352 372.555 121.352C372.411 121.352 372.161 121.28 371.803 121.137C371.516 120.922 371.23 120.814 370.943 120.814C369.368 120.814 368.508 121.996 368.365 124.359C368.365 124.646 366.897 126.329 363.961 129.408C361.025 132.488 359.449 134.063 359.234 134.135C359.02 134.206 358.59 134.958 357.945 136.391C357.372 137.751 356.549 138.79 355.475 139.506C354.4 140.15 353.577 140.688 353.004 141.117C352.503 141.547 352.109 141.762 351.822 141.762C350.318 141.762 349.101 140.688 348.17 138.539C347.239 136.391 346.773 135.281 346.773 135.209L347.418 132.953L347.203 131.02C347.203 130.948 347.633 129.516 348.492 126.723C349.423 123.858 350.462 121.638 351.607 120.062C352.753 118.415 353.648 115.766 354.293 112.113C351.07 114.262 349.137 115.336 348.492 115.336C347.06 115.336 346.344 114.405 346.344 112.543C346.344 109.105 347.454 106.026 349.674 103.305ZM525.094 114.691L526.812 113.188C527.887 113.188 528.531 112.722 528.746 111.791C528.961 110.788 529.713 110.001 531.002 109.428C532.363 108.855 533.616 107.709 534.762 105.99C535.908 104.2 537.089 103.305 538.307 103.305C538.736 103.305 539.238 103.663 539.811 104.379C540.383 105.095 540.67 105.668 540.67 106.098C540.67 108.461 539.954 110.896 538.521 113.402L538.092 116.41L537.34 117.807C536.266 118.38 535.549 118.988 535.191 119.633C534.905 120.277 534.081 121.065 532.721 121.996L531.646 123.5C530.071 124.001 528.997 124.825 528.424 125.971C527.923 127.117 527.171 127.761 526.168 127.904C525.237 128.048 524.199 128.764 523.053 130.053C522.337 130.411 521.477 130.733 520.475 131.02L520.26 132.094C519.544 132.81 518.398 133.383 516.822 133.812C515.318 134.242 514.173 134.672 513.385 135.102C512.669 135.46 512.167 135.639 511.881 135.639C510.52 135.639 509.267 135.388 508.121 134.887C506.975 134.314 505.794 133.956 504.576 133.812C504.146 133.383 503.896 132.917 503.824 132.416C503.753 131.915 503.395 131.27 502.75 130.482C502.105 129.623 501.783 128.477 501.783 127.045L502.213 125.004C502.213 124.717 502.034 124.359 501.676 123.93C501.318 123.5 501.139 123.142 501.139 122.855C501.139 122.569 501.21 122.354 501.354 122.211C501.497 122.068 501.568 121.853 501.568 121.566C501.568 121.208 501.497 120.814 501.354 120.385C501.21 119.955 501.139 119.597 501.139 119.311L501.783 114.047C501.783 113.617 501.64 113.402 501.354 113.402C501.067 113.402 500.53 113.76 499.742 114.477C499.026 115.193 498.167 115.551 497.164 115.551C496.591 115.98 496.126 116.876 495.768 118.236C495.195 118.952 494.479 119.597 493.619 120.17L493.189 120.814C493.046 121.316 492.509 121.745 491.578 122.104C490.647 122.39 490.003 122.784 489.645 123.285L488.57 124.359L486.529 124.145C486.386 124.288 485.992 124.932 485.348 126.078C484.703 127.152 483.88 128.048 482.877 128.764L474.713 135.424C473.854 135.997 472.6 136.713 470.953 137.572L470.309 138.217C464.579 142.012 460.533 143.91 458.17 143.91C456.236 143.91 453.98 143.373 451.402 142.299C448.824 141.225 447.428 139.936 447.213 138.432L446.139 134.027C445.494 133.025 445.172 131.628 445.172 129.838C445.172 128.979 445.243 128.406 445.387 128.119V127.475L445.172 123.93C445.172 123.07 445.852 122.641 447.213 122.641L446.998 119.74C446.998 119.454 447.607 118.344 448.824 116.41C450.113 114.405 450.973 113.259 451.402 112.973L452.477 111.576C452.405 110.717 452.906 109.822 453.98 108.891C455.055 107.888 455.914 106.885 456.559 105.883C457.203 104.88 458.421 103.77 460.211 102.553L463.434 99.3301C465.94 96.8236 468.661 94.8184 471.598 93.3145C472.027 93.1712 472.887 92.4551 474.176 91.166C475.536 89.877 477.04 88.946 478.688 88.373C480.406 87.7285 482.053 86.9408 483.629 86.0098C485.276 85.0788 486.565 84.6133 487.496 84.6133H488.355C488.642 84.6133 490.54 83.7181 494.049 81.9277H494.693C494.98 81.9277 495.66 82.2142 496.734 82.7871H496.949L498.668 81.9277C498.954 81.7845 499.312 81.7129 499.742 81.7129C504.182 81.7129 506.617 84.7923 507.047 90.9512C507.19 92.2402 507.548 92.8848 508.121 92.8848C508.837 92.8848 509.84 91.5957 511.129 89.0176C512.49 86.3678 515.318 85.043 519.615 85.043C522.695 85.043 524.234 87.0124 524.234 90.9512C524.234 95.6061 522.158 100.01 518.004 104.164C517.717 104.737 517.503 105.382 517.359 106.098L515.855 110.502V110.717C515.855 111.146 515.533 111.755 514.889 112.543C514.316 113.259 514.029 113.904 514.029 114.477L514.244 117.162L513.814 120.17C513.814 121.531 514.065 122.426 514.566 122.855C516.858 122.283 518.505 121.352 519.508 120.062C520.582 118.702 521.334 117.95 521.764 117.807L522.838 117.377C523.482 116.303 524.234 115.408 525.094 114.691ZM489.43 114.691C489.716 113.116 490.576 111.934 492.008 111.146C493.512 110.287 494.407 109.428 494.693 108.568C496.054 107.566 497.988 105.775 500.494 103.197C503.072 100.619 504.361 99.0436 504.361 98.4707C504.361 98.2559 504.218 98.1484 503.932 98.1484H503.717L502.857 98.6855L500.924 98.4707L498.883 98.6855L497.379 97.9336L495.982 98.1484L493.834 97.7188C492.688 97.7188 491.686 97.9694 490.826 98.4707C490.038 98.9004 488.463 99.4017 486.1 99.9746C483.808 100.548 481.731 101.55 479.869 102.982C478.007 104.343 476.646 105.023 475.787 105.023C475.286 106.098 473.603 107.637 470.738 109.643C469.02 110.215 467.91 111.469 467.408 113.402C465.546 114.906 464.615 115.766 464.615 115.98L463.863 117.807C463.29 118.308 462.574 118.738 461.715 119.096C460.855 119.382 460.354 120.134 460.211 121.352C460.068 122.497 459.566 123.572 458.707 124.574C457.919 125.505 457.525 126.257 457.525 126.83C457.525 130.339 458.206 132.094 459.566 132.094C460.139 132.094 461.321 131.736 463.111 131.02C464.973 130.232 466.048 129.695 466.334 129.408C466.62 129.122 467.193 128.835 468.053 128.549L470.094 127.475C470.38 127.188 470.702 127.009 471.061 126.938C471.419 126.866 471.777 126.651 472.135 126.293C472.493 125.863 473.137 125.434 474.068 125.004C474.999 124.503 475.715 123.858 476.217 123.07C477.434 122.354 479.404 121.244 482.125 119.74L484.381 118.021C485.956 117.305 486.923 116.697 487.281 116.195C487.639 115.694 488.355 115.193 489.43 114.691ZM577.193 137.787L576.441 139.291C576.155 140.079 575.439 140.473 574.293 140.473C574.15 140.473 572.968 140.902 570.748 141.762C568.528 142.621 566.702 143.051 565.27 143.051L562.369 143.266C560.65 143.266 558.967 142.8 557.32 141.869C555.673 140.867 554.492 139.971 553.775 139.184C553.059 138.396 552.057 136.033 550.768 132.094C549.55 128.155 548.941 125.792 548.941 125.004C548.941 122.211 549.693 120.671 551.197 120.385C551.197 119.955 550.839 119.167 550.123 118.021C549.479 116.804 549.156 116.124 549.156 115.98C549.156 111.54 550.123 108.103 552.057 105.668C551.197 102.875 550.768 101.335 550.768 101.049C550.768 100.906 550.947 100.333 551.305 99.3301C551.663 98.2559 551.913 97.2891 552.057 96.4297C552.2 95.5703 552.415 94.8542 552.701 94.2812L552.916 92.4551C553.059 91.5957 553.596 91.166 554.527 91.166C554.957 91.166 555.172 90.8796 555.172 90.3066V89.4473L554.957 88.0508C554.957 86.0456 555.458 84.6133 556.461 83.7539C557.464 82.8229 558.108 81.498 558.395 79.7793C558.753 77.9889 559.182 76.8789 559.684 76.4492C560.185 76.0195 560.579 75.2676 560.865 74.1934L562.369 71.1855L563.551 67.2109C563.694 66.4232 564.124 65.9219 564.84 65.707C565.556 65.4922 565.914 65.1699 565.914 64.7402L565.699 63.4512C566.272 61.9473 566.666 60.873 566.881 60.2285C567.096 59.584 567.74 59.0469 568.814 58.6172C569.817 56.1823 570.676 54.4635 571.393 53.4609C572.18 52.4583 572.789 51.3125 573.219 50.0234C573.648 48.7344 574.723 47.4811 576.441 46.2637C576.585 45.9772 576.871 45.2611 577.301 44.1152C577.802 42.8978 578.411 42.2174 579.127 42.0742C579.843 41.931 580.201 41.6445 580.201 41.2148L579.771 40.3555C579.771 39.7826 580.309 38.7441 581.383 37.2402L582.672 34.877C583.316 34.1608 584.033 33.6237 584.82 33.2656C585.823 31.2604 587.112 29.2552 588.688 27.25C590.263 25.2448 591.624 23.0964 592.77 20.8047C594.417 18.8711 595.956 17.4746 597.389 16.6152L600.934 12.2109C601.793 10.4206 602.652 9.52539 603.512 9.52539C604.872 6.94727 606.555 5.26432 608.561 4.47656C608.919 4.33333 609.921 3.58138 611.568 2.2207C613.287 0.788411 614.791 0.0722656 616.08 0.0722656C617.226 0.0722656 618.694 1.32552 620.484 3.83203C622.275 6.33854 623.17 8.45117 623.17 10.1699C623.17 10.5996 622.919 11.2441 622.418 12.1035C621.988 12.8913 621.738 13.7507 621.666 14.6816C621.594 15.541 621.165 18.0475 620.377 22.2012C619.589 26.3548 618.909 28.7181 618.336 29.291L615.436 34.877C615.149 35.7363 614.827 36.2376 614.469 36.3809C614.111 36.5241 613.681 37.097 613.18 38.0996L613.717 40.3555H613.502C612.714 41.2148 611.891 42.8262 611.031 45.1895C609.885 46.9082 608.883 48.5553 608.023 50.1309C607.236 51.6348 606.842 52.6374 606.842 53.1387L606.197 54.6426C604.622 57.0059 603.583 58.9036 603.082 60.3359C602.366 60.9089 601.793 61.6966 601.363 62.6992C601.005 63.7018 600.504 64.4538 599.859 64.9551C599.215 65.3848 598.785 66.1725 598.57 67.3184C598.427 68.4642 598.248 69.1445 598.033 69.3594L595.885 69.1445V69.3594L596.1 72.4746C596.1 72.7611 595.742 73.0833 595.025 73.4414C594.381 73.7995 593.808 74.5872 593.307 75.8047C592.805 76.9505 591.91 77.5951 590.621 77.7383C589.977 78.168 589.583 78.5977 589.439 79.0273L589.869 81.0684C589.726 81.2116 589.153 81.9635 588.15 83.3242C587.219 84.6849 586.646 85.401 586.432 85.4727L584.176 85.6875C583.746 85.8307 583.531 87.084 583.531 89.4473C583.531 91.0228 582.815 92.097 581.383 92.6699C577.659 98.3991 575.475 101.586 574.83 102.23C574.257 102.875 573.111 103.376 571.393 103.734C571.393 103.878 571.249 103.949 570.963 103.949C570.247 103.949 568.707 102.911 566.344 100.834H566.129C565.198 104.988 564.446 107.351 563.873 107.924C563.372 108.497 563.121 109.141 563.121 109.857L564.195 111.791V112.113C564.195 114.118 563.837 116.589 563.121 119.525V120.17L563.551 122.426V126.4L563.336 128.764C563.909 129.766 564.195 130.661 564.195 131.449C564.195 133.741 564.768 134.887 565.914 134.887C566.487 134.887 567.382 134.171 568.6 132.738L569.889 132.094C571.178 131.521 572.395 130.232 573.541 128.227C574.758 126.221 575.367 124.503 575.367 123.07C575.367 121.566 573.899 120.814 570.963 120.814C569.531 120.528 568.814 118.988 568.814 116.195C568.814 114.906 569.352 113.76 570.426 112.758C571.5 111.684 572.431 110.574 573.219 109.428C574.938 106.778 576.764 105.453 578.697 105.453L584.176 103.52C584.749 103.52 585.286 103.627 585.787 103.842C586.36 104.057 587.076 104.307 587.936 104.594C590.227 103.734 591.409 103.305 591.48 103.305C593.987 103.305 595.67 104.594 596.529 107.172C596.529 107.673 597.102 107.924 598.248 107.924C600.755 107.924 602.831 107.172 604.479 105.668C606.197 104.092 607.988 102.839 609.85 101.908C611.783 100.906 613.323 99.903 614.469 98.9004C615.686 97.8262 616.438 97.2891 616.725 97.2891H618.336C618.479 97.2891 618.909 96.8236 619.625 95.8926C620.341 94.9616 621.666 94.4961 623.6 94.4961C624.316 94.4961 624.674 94.7826 624.674 95.3555C624.674 99.151 624.101 101.407 622.955 102.123C621.881 102.768 620.556 104.307 618.98 106.742L617.799 107.387C617.083 108.031 616.438 108.747 615.865 109.535C615.292 110.323 614.719 110.788 614.146 110.932C612.499 113.438 611.246 114.691 610.387 114.691C609.957 114.691 609.456 114.512 608.883 114.154C608.382 113.796 608.059 113.617 607.916 113.617C607.486 113.617 607.128 114.477 606.842 116.195C606.412 116.84 605.23 117.878 603.297 119.311C603.01 119.311 602.509 118.881 601.793 118.021C601.793 117.878 601.721 117.807 601.578 117.807C600.432 117.807 599.716 118.451 599.43 119.74C599.215 121.029 598.427 121.745 597.066 121.889L592.77 122.641L590.299 122.426C589.726 122.426 588.473 124.18 586.539 127.689C584.677 131.199 583.531 133.025 583.102 133.168C580.882 133.884 579.342 135.209 578.482 137.143L577.193 137.787ZM613.717 14.5742V13.2852C612.07 13.7148 610.888 15.2546 610.172 17.9043L609.312 18.7637C607.952 19.623 606.878 20.8405 606.09 22.416C605.302 23.9199 604.013 25.7819 602.223 28.002L601.793 29.291L599.322 32.4062L598.893 34.4473C598.749 34.7337 598.212 35.1992 597.281 35.8438C596.35 36.4883 595.706 37.3835 595.348 38.5293C595.061 39.6035 594.273 40.9284 592.984 42.5039C591.767 44.0078 590.908 45.0462 590.406 45.6191C589.977 46.1204 589.153 48.0182 587.936 51.3125L587.291 52.3867C587.291 53.0312 586.933 53.5684 586.217 53.998L582.242 58.832C582.242 59.1185 582.099 60.1569 581.812 61.9473C580.738 62.0905 580.058 62.5202 579.771 63.2363L578.053 67.2109C577.91 67.6406 577.551 68.1419 576.979 68.7148C576.048 72.1523 574.723 74.6589 573.004 76.2344L570.533 81.2832C570.247 81.8561 570.032 82.6439 569.889 83.6465L569.674 84.291C568.814 85.9382 568.385 87.1914 568.385 88.0508C568.385 88.3372 568.313 89.2324 568.17 90.7363H568.385C568.528 90.7363 568.814 90.5573 569.244 90.1992C569.674 89.8411 570.247 89.4473 570.963 89.0176C571.679 88.5163 572.252 87.6211 572.682 86.332C573.111 85.043 573.792 84.1478 574.723 83.6465C575.725 83.0736 576.37 82.5007 576.656 81.9277L583.102 73.334C583.531 72.7611 584.104 72.1165 584.82 71.4004C585.608 70.6126 586.002 70.0039 586.002 69.5742L586.861 68.0703C587.291 67.6406 588.007 66.8529 589.01 65.707C590.084 64.5612 590.908 63.7734 591.48 63.3438C592.053 62.9141 592.376 62.2337 592.447 61.3027C592.519 60.3717 592.913 59.4049 593.629 58.4023L594.059 57.543C594.846 56.612 595.491 55.9316 595.992 55.502C596.493 55.0723 596.78 54.6068 596.852 54.1055C596.923 53.6042 597.747 52.6732 599.322 51.3125C599.465 50.2383 600.289 48.5195 601.793 46.1562C603.368 43.7214 604.55 41.5371 605.338 39.6035C606.126 37.6699 606.878 36.3451 607.594 35.6289C608.382 34.8411 608.883 33.4805 609.098 31.5469L610.172 29.8281L613.502 20.5898L612.965 18.334L613.717 14.5742ZM687.945 114.691L689.664 113.188C690.738 113.188 691.383 112.722 691.598 111.791C691.812 110.788 692.564 110.001 693.854 109.428C695.214 108.855 696.467 107.709 697.613 105.99C698.759 104.2 699.941 103.305 701.158 103.305C701.588 103.305 702.089 103.663 702.662 104.379C703.235 105.095 703.521 105.668 703.521 106.098C703.521 108.461 702.805 110.896 701.373 113.402L700.943 116.41L700.191 117.807C699.117 118.38 698.401 118.988 698.043 119.633C697.757 120.277 696.933 121.065 695.572 121.996L694.498 123.5C692.923 124.001 691.848 124.825 691.275 125.971C690.774 127.117 690.022 127.761 689.02 127.904C688.089 128.048 687.05 128.764 685.904 130.053C685.188 130.411 684.329 130.733 683.326 131.02L683.111 132.094C682.395 132.81 681.249 133.383 679.674 133.812C678.17 134.242 677.024 134.672 676.236 135.102C675.52 135.46 675.019 135.639 674.732 135.639C673.372 135.639 672.118 135.388 670.973 134.887C669.827 134.314 668.645 133.956 667.428 133.812C666.998 133.383 666.747 132.917 666.676 132.416C666.604 131.915 666.246 131.27 665.602 130.482C664.957 129.623 664.635 128.477 664.635 127.045L665.064 125.004C665.064 124.717 664.885 124.359 664.527 123.93C664.169 123.5 663.99 123.142 663.99 122.855C663.99 122.569 664.062 122.354 664.205 122.211C664.348 122.068 664.42 121.853 664.42 121.566C664.42 121.208 664.348 120.814 664.205 120.385C664.062 119.955 663.99 119.597 663.99 119.311L664.635 114.047C664.635 113.617 664.492 113.402 664.205 113.402C663.919 113.402 663.382 113.76 662.594 114.477C661.878 115.193 661.018 115.551 660.016 115.551C659.443 115.98 658.977 116.876 658.619 118.236C658.046 118.952 657.33 119.597 656.471 120.17L656.041 120.814C655.898 121.316 655.361 121.745 654.43 122.104C653.499 122.39 652.854 122.784 652.496 123.285L651.422 124.359L649.381 124.145C649.238 124.288 648.844 124.932 648.199 126.078C647.555 127.152 646.731 128.048 645.729 128.764L637.564 135.424C636.705 135.997 635.452 136.713 633.805 137.572L633.16 138.217C627.431 142.012 623.385 143.91 621.021 143.91C619.088 143.91 616.832 143.373 614.254 142.299C611.676 141.225 610.279 139.936 610.064 138.432L608.99 134.027C608.346 133.025 608.023 131.628 608.023 129.838C608.023 128.979 608.095 128.406 608.238 128.119V127.475L608.023 123.93C608.023 123.07 608.704 122.641 610.064 122.641L609.85 119.74C609.85 119.454 610.458 118.344 611.676 116.41C612.965 114.405 613.824 113.259 614.254 112.973L615.328 111.576C615.257 110.717 615.758 109.822 616.832 108.891C617.906 107.888 618.766 106.885 619.41 105.883C620.055 104.88 621.272 103.77 623.062 102.553L626.285 99.3301C628.792 96.8236 631.513 94.8184 634.449 93.3145C634.879 93.1712 635.738 92.4551 637.027 91.166C638.388 89.877 639.892 88.946 641.539 88.373C643.258 87.7285 644.905 86.9408 646.48 86.0098C648.128 85.0788 649.417 84.6133 650.348 84.6133H651.207C651.493 84.6133 653.391 83.7181 656.9 81.9277H657.545C657.831 81.9277 658.512 82.2142 659.586 82.7871H659.801L661.52 81.9277C661.806 81.7845 662.164 81.7129 662.594 81.7129C667.034 81.7129 669.469 84.7923 669.898 90.9512C670.042 92.2402 670.4 92.8848 670.973 92.8848C671.689 92.8848 672.691 91.5957 673.98 89.0176C675.341 86.3678 678.17 85.043 682.467 85.043C685.546 85.043 687.086 87.0124 687.086 90.9512C687.086 95.6061 685.009 100.01 680.855 104.164C680.569 104.737 680.354 105.382 680.211 106.098L678.707 110.502V110.717C678.707 111.146 678.385 111.755 677.74 112.543C677.167 113.259 676.881 113.904 676.881 114.477L677.096 117.162L676.666 120.17C676.666 121.531 676.917 122.426 677.418 122.855C679.71 122.283 681.357 121.352 682.359 120.062C683.434 118.702 684.186 117.95 684.615 117.807L685.689 117.377C686.334 116.303 687.086 115.408 687.945 114.691ZM652.281 114.691C652.568 113.116 653.427 111.934 654.859 111.146C656.363 110.287 657.258 109.428 657.545 108.568C658.906 107.566 660.839 105.775 663.346 103.197C665.924 100.619 667.213 99.0436 667.213 98.4707C667.213 98.2559 667.07 98.1484 666.783 98.1484H666.568L665.709 98.6855L663.775 98.4707L661.734 98.6855L660.23 97.9336L658.834 98.1484L656.686 97.7188C655.54 97.7188 654.537 97.9694 653.678 98.4707C652.89 98.9004 651.314 99.4017 648.951 99.9746C646.66 100.548 644.583 101.55 642.721 102.982C640.859 104.343 639.498 105.023 638.639 105.023C638.137 106.098 636.454 107.637 633.59 109.643C631.871 110.215 630.761 111.469 630.26 113.402C628.398 114.906 627.467 115.766 627.467 115.98L626.715 117.807C626.142 118.308 625.426 118.738 624.566 119.096C623.707 119.382 623.206 120.134 623.062 121.352C622.919 122.497 622.418 123.572 621.559 124.574C620.771 125.505 620.377 126.257 620.377 126.83C620.377 130.339 621.057 132.094 622.418 132.094C622.991 132.094 624.173 131.736 625.963 131.02C627.825 130.232 628.899 129.695 629.186 129.408C629.472 129.122 630.045 128.835 630.904 128.549L632.945 127.475C633.232 127.188 633.554 127.009 633.912 126.938C634.27 126.866 634.628 126.651 634.986 126.293C635.344 125.863 635.989 125.434 636.92 125.004C637.851 124.503 638.567 123.858 639.068 123.07C640.286 122.354 642.255 121.244 644.977 119.74L647.232 118.021C648.808 117.305 649.775 116.697 650.133 116.195C650.491 115.694 651.207 115.193 652.281 114.691ZM773.023 45.4043L771.949 46.2637L769.049 51.5273C768.906 51.957 768.619 52.4225 768.189 52.9238L766.793 54.8574C766.363 56.3613 765.755 57.5788 764.967 58.5098C764.179 59.4408 763.678 60.3717 763.463 61.3027C763.248 62.1621 762.89 62.8424 762.389 63.3438C761.959 63.8451 761.458 65.2773 760.885 67.6406L758.521 74.8379L757.125 76.6641V77.9531C757.125 78.3828 756.552 78.9557 755.406 79.6719V83.4316C754.618 84.5059 753.795 85.9023 752.936 87.6211L751.969 94.8184C751.253 101.192 750.214 104.952 748.854 106.098L747.457 107.387C747.099 108.174 746.383 108.568 745.309 108.568C744.736 108.568 743.482 107.602 741.549 105.668L740.26 105.238C739.042 104.665 737.825 103.305 736.607 101.156C735.462 99.0078 734.889 97.0026 734.889 95.1406C734.889 92.6341 735.211 90.8438 735.855 89.7695C736.572 88.6237 736.965 87.7643 737.037 87.1914L742.516 72.7969C744.664 67.0677 746.992 62.3411 749.498 58.6172L751.002 54.4277L752.076 53.1387L753.15 48.9492C753.437 48.6628 753.902 48.2689 754.547 47.7676C755.621 44.1868 756.66 41.8236 757.662 40.6777C758.665 39.4603 759.381 38.028 759.811 36.3809C760.24 34.7337 760.777 33.7311 761.422 33.373C762.066 33.015 762.568 31.8691 762.926 29.9355C763.355 28.002 764.716 26.7129 767.008 26.0684L766.363 24.6719V24.457C766.363 24.3138 766.793 23.6693 767.652 22.5234C768.583 21.3776 769.872 18.334 771.52 13.3926C773.238 8.45117 775.423 5.98047 778.072 5.98047C779.433 5.98047 781.367 7.77083 783.873 11.3516C786.451 14.8607 787.74 17.4746 787.74 19.1934C787.74 21.4134 786.344 24.1706 783.551 27.4648C780.758 30.7591 778.574 33.8743 776.998 36.8105C775.494 39.7467 774.527 41.8594 774.098 43.1484C773.74 44.3659 773.382 45.1178 773.023 45.4043ZM741.764 118.021L742.623 118.881C744.055 120.313 744.843 121.459 744.986 122.318C745.201 123.106 745.595 123.965 746.168 124.896C746.741 125.756 747.027 126.544 747.027 127.26C747.027 127.546 746.598 128.227 745.738 129.301C744.879 130.303 744.163 132.559 743.59 136.068C743.089 139.577 741.298 141.332 738.219 141.332C735.569 141.332 733.671 140.652 732.525 139.291C731.308 139.291 730.484 139.148 730.055 138.861C729.697 138.503 729.052 137.357 728.121 135.424C727.262 133.49 726.51 132.201 725.865 131.557C725.292 130.912 725.006 129.981 725.006 128.764C725.006 127.188 725.579 125.72 726.725 124.359C727.87 122.927 728.694 121.459 729.195 119.955C731.415 117.735 732.919 116.589 733.707 116.518C734.495 116.446 735.139 116.303 735.641 116.088C736.214 115.873 736.858 115.766 737.574 115.766C738.863 115.766 740.26 116.518 741.764 118.021Z" fill="#FF9642"/>
</svg>
